<svg width="273" height="194" viewBox="0 0 273 194" fill="none" xmlns="http://www.w3.org/2000/svg">
<rect width="273" height="194" rx="34" fill="#FF0000"/>
<path d="M85.2066 148.727L122.772 111.162M170.078 94.4565L158.833 128.191C158.653 128.732 158.346 129.222 157.937 129.618C157.528 130.015 157.03 130.307 156.484 130.47L87.55 150.959C86.929 151.143 86.2693 151.154 85.6427 150.989C85.016 150.825 84.4465 150.492 83.9961 150.026C83.5457 149.56 83.2316 148.98 83.088 148.348C82.9445 147.717 82.977 147.058 83.1819 146.443L105.566 79.3039C105.726 78.8218 105.988 78.3799 106.335 78.0082C106.681 77.6364 107.103 77.3435 107.573 77.1494L139.371 64.0568C140.018 63.7898 140.729 63.7202 141.415 63.8568C142.101 63.9934 142.731 64.33 143.226 64.8242L169.222 90.8322C169.687 91.2972 170.014 91.8826 170.165 92.5228C170.316 93.1629 170.286 93.8325 170.078 94.4565Z" stroke="white" stroke-width="12" stroke-linecap="round" stroke-linejoin="round"/>
<path d="M170.777 92.3778L187.47 75.6786C189.683 73.4647 190.927 70.4624 190.927 67.332C190.927 64.2015 189.683 61.1993 187.47 58.9854L174.956 46.4595C173.86 45.3627 172.558 44.4927 171.125 43.8991C169.693 43.3055 168.157 43 166.606 43C165.056 43 163.52 43.3055 162.087 43.8991C160.655 44.4927 159.353 45.3627 158.257 46.4595L141.564 63.1587M135.295 98.6348C134.472 97.8128 133.496 97.1607 132.421 96.716C131.347 96.2712 130.195 96.0425 129.033 96.0427C127.87 96.043 126.718 96.2723 125.644 96.7176C124.57 97.1628 123.594 97.8153 122.772 98.6378C121.95 99.4602 121.298 100.437 120.853 101.511C120.408 102.585 120.179 103.737 120.18 104.9C120.18 106.063 120.409 107.214 120.855 108.288C121.3 109.363 121.952 110.339 122.775 111.161C124.436 112.821 126.688 113.753 129.037 113.753C131.385 113.752 133.637 112.819 135.298 111.158C136.958 109.497 137.89 107.244 137.89 104.896C137.889 102.547 136.956 100.295 135.295 98.6348Z" stroke="white" stroke-width="12" stroke-linecap="round" stroke-linejoin="round"/>
<circle cx="126.916" cy="107.993" r="0.585525" fill="#D9D9D9"/>
<circle cx="129.843" cy="103.894" r="9.36841" fill="white"/>
</svg>
