<svg width="24" height="25" viewBox="0 0 24 25" fill="none" xmlns="http://www.w3.org/2000/svg">
<path d="M1.2957 19.6021L7.6597 13.2381M15.6737 10.4081L13.7687 16.1231C13.7383 16.2147 13.6862 16.2976 13.617 16.3648C13.5477 16.432 13.4632 16.4815 13.3707 16.5091L1.6927 19.9801C1.58749 20.0113 1.47572 20.0131 1.36957 19.9853C1.26341 19.9574 1.16693 19.901 1.09062 19.8221C1.01432 19.7432 0.961109 19.6449 0.93679 19.5379C0.912471 19.4308 0.917973 19.3192 0.952696 19.2151L4.7447 7.84108C4.77187 7.75942 4.8163 7.68455 4.87497 7.62157C4.93363 7.5586 5.00516 7.50898 5.0847 7.47608L10.4717 5.25808C10.5812 5.21285 10.7017 5.20106 10.8179 5.22419C10.9341 5.24733 11.0409 5.30436 11.1247 5.38808L15.5287 9.79408C15.6075 9.87287 15.6628 9.97204 15.6884 10.0805C15.714 10.1889 15.7089 10.3024 15.6737 10.4081Z" stroke="#FF7562" stroke-width="1.5" stroke-linecap="round" stroke-linejoin="round"/>
<path d="M15.7923 10.056L18.6203 7.22699C18.9953 6.85194 19.2059 6.34332 19.2059 5.81299C19.2059 5.28266 18.9953 4.77405 18.6203 4.39899L16.5003 2.27699C16.3146 2.09119 16.0941 1.9438 15.8514 1.84324C15.6087 1.74268 15.3485 1.69092 15.0858 1.69092C14.8231 1.69092 14.563 1.74268 14.3203 1.84324C14.0776 1.9438 13.8571 2.09119 13.6713 2.27699L10.8433 5.10599M9.78133 11.116C9.642 10.9767 9.4766 10.8663 9.29458 10.7909C9.11256 10.7156 8.91748 10.6768 8.72048 10.6769C8.52348 10.6769 8.32842 10.7158 8.14643 10.7912C7.96444 10.8666 7.7991 10.9772 7.65983 11.1165C7.52056 11.2558 7.4101 11.4212 7.33476 11.6032C7.25941 11.7853 7.22066 11.9803 7.2207 12.1773C7.22075 12.3743 7.2596 12.5694 7.33503 12.7514C7.41046 12.9334 7.521 13.0987 7.66033 13.238C7.94172 13.5193 8.32333 13.6772 8.72118 13.6771C9.11904 13.677 9.50057 13.5189 9.78183 13.2375C10.0631 12.9561 10.2211 12.5745 10.221 12.1766C10.2209 11.7788 10.0627 11.3973 9.78133 11.116Z" stroke="#FF7562" stroke-width="1.5" stroke-linecap="round" stroke-linejoin="round"/>
</svg>